PathFileType	4	(X/Y/Z)	C:\Users\WrightLab\Desktop\Jo\P4V116.trc
DataRate	CameraRate	NumFrames	NumMarkers	Units	OrigDataRate	OrigDataStartFrame	OrigNumFrames
100.00	100.00	       15	19	mm	100.00	263	       525
Frame#	Time	Headset_Front			Headset_Back			Headset_Left			Headset_Right			Left_Shoulder			Right_Shoulder			Sternum			C7			Left Elbow			Right Elbow			Left Wrist			Right Wrist			Left ASIS			Right ASIS			S2			Left Knee			Right Knee			Left Ankle			Right Ankle			
		X1	Y1	Z1	X2	Y2	Z2	X3	Y3	Z3	X4	Y4	Z4	X5	Y5	Z5	X6	Y6	Z6	X7	Y7	Z7	X8	Y8	Z8	X9	Y9	Z9	X10	Y10	Z10	X11	Y11	Z11	X12	Y12	Z12	X13	Y13	Z13	X14	Y14	Z14	X15	Y15	Z15	X16	Y16	Z16	X17	Y17	Z17	X18	Y18	Z18	X19	Y19	Z19	

263	2.620	138.05457	1678.29321	909.03925							26.51612	1708.78638	811.09381	270.49686	1537.51245	638.45197	-25.64998	1551.56445	722.28156	160.59146	1476.37634	780.88177				425.94205	1199.43555	591.69147	-187.82410	1214.92419	740.38153	456.96210	923.98676	740.31958	-152.66965	958.05908	902.02740	271.35358	1054.98999	671.36432	-19.02040	1053.67358	831.39612	51.93410	1067.08606	580.99902	288.57364	571.49072	614.84344	4.73648	634.84644	1001.99469	238.42882	71.66529	530.61029	70.96429	155.16528	794.29230	
264	2.630	138.68227	1676.73218	918.27283							27.98464	1707.55762	819.58893	273.02982	1536.64111	648.51794	-22.86073	1550.74182	729.43298	162.14122	1475.71252	789.92792				431.70331	1199.15515	604.52533	-185.74536	1214.14673	745.96985	463.17746	925.19061	756.04266	-153.70319	956.19275	906.88898	274.79861	1054.18396	681.56116	-17.77184	1052.63354	838.75916	56.34768	1066.41870	588.22394	289.91141	571.33246	619.79468	5.29909	635.51794	1009.78351	238.18860	72.31116	530.66913	80.34738	147.27580	822.90167	
265	2.640	138.91086	1675.41394	927.63251							29.60121	1706.96985	827.85034	276.73611	1536.06323	658.47107	-20.83295	1549.78003	736.94995	164.16594	1475.01746	798.74762				436.36157	1199.27222	618.55420	-183.35864	1212.91394	751.53790	468.30298	926.07159	772.92029	-155.06612	954.12036	911.62109	278.26389	1053.13245	691.37756	-16.68014	1051.78552	845.92780	61.28581	1066.01758	596.19891	291.58450	571.01221	625.68207	5.92489	634.73181	1017.30573	237.98584	72.55627	530.67291	88.45055	139.12756	851.53162	
266	2.650	139.38902	1673.84729	936.94763							30.68860	1705.52710	836.58514	278.94247	1534.90161	668.48804	-18.65191	1548.62927	744.40637	165.67458	1473.89307	808.21692				440.80936	1198.82825	631.91339	-181.45975	1211.80579	757.80774	474.24197	927.87543	788.06091	-155.88089	951.89990	916.28601	281.29166	1052.27136	702.53687	-14.68365	1050.57654	852.39697	66.35728	1065.72620	604.56848	293.22394	570.63104	631.64532	6.25046	634.59393	1024.05139	237.81891	72.68943	530.67596	94.78336	131.57988	881.47009	
267	2.660	140.21339	1672.10107	946.31812							31.55987	1704.70667	845.24371	282.06171	1534.17725	679.21442	-16.40846	1547.37512	751.87653	167.07677	1473.03503	817.35291				444.83334	1198.45410	645.32111	-179.13712	1210.43750	763.44226	479.39047	928.68774	804.63953	-157.13390	949.55927	921.44006	284.55066	1050.92651	712.36456	-13.43785	1049.64429	860.31622	71.26221	1065.06042	612.31451	294.39035	570.31512	638.12390	8.10562	632.60840	1030.56128	237.80431	72.79012	530.83624	100.99341	124.68609	910.65240	
268	2.670	141.01149	1670.28955	955.64966							33.04274	1703.52881	853.92419	284.40884	1533.12305	688.96448	-14.93499	1546.06519	759.54907	168.14694	1471.91174	826.52759				448.95319	1198.01306	658.71045	-177.27628	1208.74744	769.21826	484.31732	929.73944	820.17340	-158.05350	946.62604	926.65637	287.66956	1050.29224	723.95538	-12.01581	1047.80420	867.40674	75.52055	1063.96582	620.91071	296.05975	569.81415	644.71375	8.86076	630.71588	1036.30444	237.80063	73.01744	531.11322	104.49768	118.45120	940.45905	
269	2.680	141.34810	1668.64612	965.07379							33.66375	1702.46155	862.70978	286.84271	1532.49304	700.65991	-13.53953	1544.40320	767.50677	168.68835	1470.83093	836.57843				452.80502	1197.53357	672.03375	-175.15041	1207.09741	774.81073	488.76971	931.24316	837.45349	-159.34886	944.16180	931.34277	290.73376	1048.30029	734.60785	-10.41883	1046.39722	875.08154	80.72208	1062.53516	630.41052	297.48560	569.20618	651.53711	10.63011	628.26996	1042.36108	237.84145	73.11526	531.35065	108.17531	112.67580	969.35187	
270	2.690	139.94458	1667.25903	974.78174							34.67085	1700.76929	871.51416	288.50531	1531.22168	710.83063	-12.54608	1542.73438	775.33911	170.07765	1469.47998	846.01630				456.22443	1197.24023	685.41602	-173.61145	1205.06519	781.36969	492.47827	932.33636	852.44800	-160.03246	941.45764	936.77844	293.64957	1046.75317	745.77588	-8.71709	1044.60645	882.90100	84.68838	1061.92712	638.43353	298.85239	568.30487	658.65179	11.86210	625.40662	1048.15454	237.69740	73.61870	531.69153	110.18286	108.39320	999.13086	
271	2.700	139.94405	1665.52002	984.36346							34.92810	1699.26880	880.61163	289.93643	1530.34558	721.09192	-11.13711	1541.16907	783.22974	170.64163	1468.33911	855.34589				458.83261	1196.83521	698.76776	-172.39203	1203.09705	787.35663	496.74268	934.35120	870.27661	-161.13013	938.65100	942.07458	296.71457	1045.62500	756.82324	-7.65647	1043.46155	890.91058	89.28399	1060.86218	646.38837	299.95615	567.23651	665.27930	13.17623	621.88336	1053.65869	237.47075	74.01349	531.67902	111.59027	104.27864	1028.34973	
272	2.710	140.30275	1663.59058	993.96729							35.55499	1697.70764	889.72272	291.29437	1529.26428	732.69977	-10.34745	1539.02319	791.44379	171.08424	1467.20776	865.98517				462.25491	1195.99890	711.96637	-170.96747	1200.75940	794.00885	500.53067	935.30548	885.10956	-162.49042	935.91937	947.44733	299.02786	1043.52173	768.19165	-6.38316	1041.57178	899.63971	92.33955	1059.51086	655.83521	301.77182	566.76599	672.63715	15.20736	618.08185	1059.87231	237.21222	74.23083	532.34766	112.45930	101.38708	1057.23962	
273	2.720	139.63693	1661.53125	1003.81635							34.65943	1696.40295	899.10419	293.09354	1527.73291	743.34747	-9.81578	1536.89868	799.78528	172.22034	1466.11133	875.98242				464.29770	1195.06213	725.33972	-169.93367	1198.37842	800.33105	503.83026	937.27405	903.19989	-163.28224	932.48273	953.19397	302.12146	1042.28564	779.05591	-4.39042	1039.40125	908.16577	96.35641	1057.85559	665.88525	302.82654	565.95435	679.47089	16.17163	614.37225	1065.52917	237.16080	74.96254	532.86407	112.76397	98.56944	1085.55603	
274	2.730	138.54010	1660.07971	1013.65350							34.66837	1694.67834	908.46136	294.64529	1527.02051	756.29102	-9.12594	1534.43054	808.49292	171.48384	1463.24475	885.57831				467.11029	1194.61255	738.19037	-168.87421	1195.91064	806.57513	506.72971	938.30847	919.55695	-163.80461	929.38800	958.93134	304.85352	1040.01904	790.54700	-2.78199	1037.37146	917.25488	100.12675	1056.45642	675.37061	303.82806	565.28381	686.39050	17.30856	610.21716	1072.27332	237.02771	75.67953	533.24420	112.52714	97.28364	1112.55371	
275	2.740	137.71944	1658.15942	1023.63794							34.50305	1692.77625	917.90594	295.67975	1525.47058	766.96008	-8.51326	1531.83118	817.28052	172.02316	1461.65723	896.02856				468.02881	1193.53772	752.03320	-167.90353	1193.02515	813.20282	509.29816	939.96674	935.80524	-165.59775	926.24133	964.73981	307.11508	1038.45227	801.99377	-1.09187	1034.90344	926.83459	102.92900	1055.28540	684.63739	305.05737	564.42682	693.14270	17.98393	607.14484	1079.26306	236.86073	76.54896	533.79706	111.43837	96.41165	1139.91125	
276	2.750	136.69896	1656.36841	1033.70605							33.52951	1690.95435	927.53815	296.34424	1524.28113	777.76331	-8.35252	1529.39868	825.92389	172.01823	1459.96008	906.64056				470.94897	1192.75085	764.66260	-167.00838	1190.19971	819.71320	511.13812	941.03790	952.09290	-167.66655	923.39630	971.39063	309.55884	1036.01770	813.21851	-0.08108	1032.97607	936.28119	106.01785	1052.87646	695.81268	306.06552	563.34216	699.86871	19.15520	602.51575	1086.06226	236.67471	76.90227	534.22052	110.36492	95.88232	1165.24573	
277	2.760	136.19650	1654.26489	1043.86780							33.52928	1688.53235	937.28009	296.88565	1522.86133	790.60547	-8.05813	1526.73889	834.99084	171.19356	1458.16626	917.15668	135.24637	1559.30945	758.61902	472.49622	1191.85559	778.68854	-166.06467	1187.40027	826.67889	513.47992	942.22772	968.10724	-167.32726	919.83508	976.79834	311.29855	1034.32275	824.80005	1.65661	1030.12427	946.95972	109.19698	1051.39514	707.22467	306.86157	562.52521	707.25128	19.95911	598.56305	1093.16614	236.45383	77.90582	535.48090	109.00018	95.95516	1190.35107	
